<svg id="Слой_1" data-name="Слой 1" xmlns="http://www.w3.org/2000/svg" viewBox="0 0 500 500"><title>logo-tether</title><path d="M250,0C388.07,0,500,111.93,500,250S388.06,500,250,500,0,388.1,0,250,111.92,0,250,0" fill="#53ae94"/><path d="M280.85,216.69V179.5h85V122.83H134.31V179.5h85.06v37.16c-69.13,3.18-121.1,16.86-121.1,33.27s52,30.09,121.1,33.28V402.33h61.5V283.2c69-3.18,120.86-16.86,120.86-33.25s-51.86-30.06-120.86-33.25m0,56.41v0c-1.74.11-10.65.65-30.5.65-15.87,0-27-.46-31-.66v.05c-61.07-2.7-106.66-13.34-106.66-26.07S158.33,223.71,219.4,221v41.52c4,.28,15.44,1,31.22,1,19,0,28.51-.8,30.26-1V221c60.95,2.71,106.43,13.36,106.43,26s-45.5,23.33-106.43,26" fill="#fff"/></svg>