<svg xmlns="http://www.w3.org/2000/svg" viewBox="0 0 442.69 442.69"><path d="M425.62,220.48c0-112.62-91.59-204.21-204.2-204.21S17.21,107.86,17.21,220.48,108.8,424.69,221.42,424.69,425.62,333.1,425.62,220.48ZM221.49-.86h-.15C99.3-.79,0,98.43,0,220.48S99.3,441.82,221.34,441.82s221.35-99.29,221.35-221.34S343.39-.79,221.34-.86Z" transform="translate(0 0.86)" fill="#4a4c4d"/><path d="M339.14,203.77l26.07-84.6H262.1l18.65-29.31L235,119.17H114.56l-25.85,84.6h89.21l-13.1,43.78L108.94,328.7l40.33-30.6-1.37,5.33-18.43,54.8H228l35.43-146.82,10.15-7.71h65.45ZM221.34,16.27c112.62,0,204.21,91.59,204.21,204.21S334,424.69,221.34,424.69,17.14,333.1,17.14,220.48,108.73,16.27,221.34,16.27Z" transform="translate(0 0.86)" fill="#febe44"/><path d="M128,179.36l70.42-45-75.53-.21-17.5,56.66,50.34.29L128,179.29Zm87.92,162.45,26.28-100.38L164,302.28l-12.68,39.53ZM150,285.72l117.44-89L215.51,174.9l3.24-5.11,30.89-48.53.29-.44-88.93,57,46.59,24.34-57.53,83.67Zm180-94.55,18.5-56.95H266.13l-22.75,37.15L295.22,191l34.78.29Zm35.14-71.93-26.07,84.61H273.62l-10.15,7.7L228,358.37H129.47l18.43-54.8,1.37-5.32-40.33,30.6,55.88-81.15,13.1-43.78H88.71l25.85-84.61H235L280.75,90l-18.65,29.3H365.21Z" transform="translate(0 0.86)" fill="#4a4c4d"/><polygon points="348.58 135.08 330.07 192.04 295.29 191.75 243.45 172.24 266.2 135.08 348.58 135.08" fill="#febe44"/><polygon points="267.43 197.58 149.99 286.58 207.52 202.98 161 178.65 249.93 121.69 249.71 122.12 218.75 170.65 215.58 175.84 267.43 197.58" fill="#febe44"/><polygon points="242.22 242.37 215.87 342.67 151.43 342.67 164.1 303.14 242.22 242.37" fill="#febe44"/><polygon points="198.45 135.3 127.95 180.23 155.68 192.04 105.42 191.75 122.91 135.08 198.45 135.3" fill="#febe44"/></svg>