<svg xmlns="http://www.w3.org/2000/svg" xml:space="preserve" width="6.19444in" height="6.19444in" version="1.1" style="shape-rendering:geometricPrecision; text-rendering:geometricPrecision; image-rendering:optimizeQuality; fill-rule:evenodd; clip-rule:evenodd"
viewBox="0 0 6194 6194"
 xmlns:xlink="http://www.w3.org/1999/xlink">
 <defs>
  <style type="text/css">
    .fil0 {fill:#4A4C4D;fill-rule:nonzero}
    .fil1 {fill:#F5DC29;fill-rule:nonzero}
  </style>
 </defs>
  <path class="fil0" d="M5911 3062c0,-1564 -1272,-2836 -2836,-2836 -1564,0 -2836,1272 -2836,2836 0,1564 1272,2836 2836,2836 1564,0 2836,-1272 2836,-2836zm-2835 -3074l-2 0c-1695,1 -3074,1379 -3074,3074 0,1695 1379,3074 3074,3074 1695,0 3074,-1379 3074,-3074 0,-1695 -1379,-3073 -3074,-3074z"/>
  <path class="fil1" d="M4710 2830l362 -1175 -1432 0 259 -407 -636 407 -1672 0 -359 1175 1239 0 -182 608 -776 1127 560 -425 -19 74 -256 761 1369 0 492 -2039 141 -107 909 0zm-1636 -2604c1564,0 2836,1272 2836,2836 0,1564 -1272,2836 -2836,2836 -1564,0 -2836,-1272 -2836,-2836 0,-1564 1272,-2836 2836,-2836z"/>
  <path class="fil0" d="M1777 2491l978 -625 -1049 -3 -243 787 699 4 -385 -164zm1221 2256l365 -1394 -1085 845 -176 549 896 0zm-915 -779l1631 -1236 -721 -303 45 -71 429 -674 4 -6 -1235 791 647 338 -799 1162zm2500 -1313l257 -791 -1144 0 -316 516 720 272 483 4zm488 -999l-362 1175 -909 0 -141 107 -492 2039 -1369 0 256 -761 19 -74 -560 425 776 -1127 182 -608 -1239 0 359 -1175 1672 0 636 -407 -259 407 1432 0z"/>
  <polygon class="fil1" points="4841,1864 4584,2655 4101,2651 3381,2380 3697,1864 "/>
  <polygon class="fil1" points="3714,2732 2083,3968 2882,2807 2236,2469 3471,1678 3468,1684 3038,2358 2994,2430 "/>
  <polygon class="fil1" points="3364,3354 2998,4747 2103,4747 2279,4198 "/>
  <polygon class="fil1" points="2756,1867 1777,2491 2162,2655 1464,2651 1707,1864 "/>
</svg>
