<svg xmlns="http://www.w3.org/2000/svg" xmlns:xlink="http://www.w3.org/1999/xlink" x="0px" y="0px"
	 viewBox="0 0 754.9 92" xml:space="preserve">
<style type="text/css">
	.st1{fill:#3C3E3F;}
</style>
	<path class="st1" d="M133.7,74.3c1.2-0.1,1.9-0.3,2.2-0.6c0.3-0.3,0.4-0.6,0.4-1.1V38.1h-15.9c-0.5,0-0.9,0.2-1.1,0.5
		c-0.2,0.3-0.4,1-0.6,2.1h-1.1V24.3h1.1c0.1,1,0.3,1.7,0.6,2.1c0.2,0.3,0.6,0.5,1.1,0.5H166c0.5,0,0.9-0.2,1.1-0.5
		c0.2-0.3,0.4-1,0.6-2.1h1.1v16.4h-1.1c-0.1-1-0.3-1.7-0.6-2.1c-0.2-0.3-0.6-0.5-1.1-0.5h-15.9v34.5c0,0.4,0.1,0.8,0.4,1.1
		c0.3,0.3,1,0.5,2.2,0.6v1.1h-19V74.3z"/>
	<path class="st1" d="M192,72.6c0,0.7,0.2,1.1,0.7,1.3c0.5,0.2,1.1,0.3,1.8,0.4v1.1h-17.5v-1.1c0.7-0.1,1.4-0.2,1.8-0.4
		c0.5-0.2,0.7-0.6,0.7-1.3V37.6c0-0.7-0.2-1.1-0.7-1.3c-0.5-0.2-1.1-0.3-1.8-0.4v-1.1h17.5v1.1c-0.7,0.1-1.4,0.2-1.8,0.4
		c-0.5,0.2-0.7,0.6-0.7,1.3v11.6h20.4V37.6c0-0.7-0.2-1.1-0.7-1.3c-0.5-0.2-1.1-0.3-1.8-0.4v-1.1h17.5v1.1
		c-0.7,0.1-1.4,0.2-1.8,0.4c-0.5,0.2-0.7,0.6-0.7,1.3v35.1c0,0.7,0.2,1.1,0.7,1.3c0.5,0.2,1.1,0.3,1.8,0.4v1.1h-17.5v-1.1
		c0.7-0.1,1.4-0.2,1.8-0.4c0.5-0.2,0.7-0.6,0.7-1.3v-14H192V72.6z"/>
	<path class="st1" d="M242.1,37.6c0-0.7-0.3-1.1-0.8-1.3c-0.5-0.2-1.2-0.3-1.9-0.4v-1.1h16.6v1.1c-0.3,0.1-0.6,0.2-1,0.4
		c-0.4,0.2-0.6,0.6-0.6,1.3V60c0,2.3,0.8,4,2.5,5c1.7,1,3.9,1.5,6.7,1.5c2.8,0,5-0.5,6.7-1.5c1.7-1,2.5-2.7,2.5-5V37.6
		c0-0.7-0.2-1.1-0.6-1.3c-0.4-0.2-0.7-0.3-1-0.4v-1.1H288v1.1c-0.7,0.1-1.4,0.2-1.9,0.4c-0.5,0.2-0.8,0.6-0.8,1.3v20.3
		c0,2.5-0.4,4.8-1.1,7c-0.7,2.2-1.9,4.1-3.6,5.7c-1.7,1.6-3.9,2.9-6.6,3.8c-2.8,0.9-6.2,1.3-10.2,1.3c-4.1,0-7.5-0.4-10.2-1.3
		c-2.8-0.9-5-2.2-6.6-3.8c-1.7-1.6-2.9-3.5-3.6-5.7c-0.7-2.2-1.1-4.5-1.1-7V37.6z"/>
	<path class="st1" d="M348,72.6c0,0.7,0.2,1.1,0.7,1.3c0.5,0.2,1.1,0.3,1.8,0.4v1.1h-17.1v-1.1c0.5,0,1.1-0.1,1.7-0.2
		c0.6-0.1,1-0.5,1-1c0-0.6-0.7-1.6-2-3.1c-1.4-1.5-3.1-3.4-5.2-5.6c-2.1-2.2-4.5-4.7-7.2-7.4c-2.6-2.7-5.3-5.6-7.8-8.7l-0.2,0.2
		v24.2c0,0.7,0.2,1.1,0.7,1.3c0.5,0.2,1,0.3,1.7,0.4v1.1h-15.8v-1.1c0.6-0.1,1.2-0.2,1.6-0.4c0.5-0.2,0.7-0.6,0.7-1.3V37.6
		c0-0.7-0.2-1.1-0.7-1.3c-0.5-0.2-1.1-0.3-1.8-0.4v-1.1h22v1.1c-0.4,0.1-0.9,0.2-1.3,0.4c-0.4,0.2-0.6,0.6-0.6,1.3
		c0,0.1,0.5,0.8,1.5,1.9c1,1.1,2.3,2.6,3.9,4.3c1.6,1.7,3.4,3.6,5.4,5.7c2,2.1,3.9,4.2,5.9,6.3V37.6c0-0.7-0.2-1.1-0.7-1.3
		c-0.5-0.2-1.1-0.3-1.8-0.4v-1.1h16.2v1.1c-0.7,0.1-1.4,0.2-1.8,0.4c-0.5,0.2-0.7,0.6-0.7,1.3V72.6z"/>
	<path class="st1" d="M364.1,37.6c0-0.7-0.2-1.1-0.7-1.3c-0.5-0.2-1-0.3-1.7-0.4v-1.1h27.7c3.4,0,6.4,0.6,8.8,1.7
		c2.4,1.1,4.4,2.6,6,4.4c1.6,1.8,2.7,4,3.4,6.5c0.7,2.5,1.1,5,1.1,7.8c0,2.7-0.4,5.3-1.1,7.8c-0.7,2.5-1.8,4.6-3.4,6.5
		c-1.6,1.8-3.6,3.3-6,4.4c-2.4,1.1-5.3,1.7-8.8,1.7h-27.7v-1.1c0.7-0.1,1.2-0.2,1.7-0.4c0.5-0.2,0.7-0.6,0.7-1.3V37.6z
		M383.1,66.5c4.8,0,8.2-0.8,10.3-2.5c2.1-1.7,3.1-4.7,3.1-8.9c0-4.2-1-7.2-3.1-8.9c-2.1-1.7-5.5-2.5-10.3-2.5h-6.6v22.9H383.1z"
		/>
	<path class="st1" d="M459.3,67.3c1.2,0,2-0.8,2.4-2.3h1.1v12.1h-0.9c-0.3-0.9-0.6-1.4-1-1.5c-0.3-0.1-0.9-0.2-1.6-0.2h-41.2v-1.1
		c0.7-0.1,1.3-0.2,1.8-0.4c0.5-0.2,0.8-0.6,0.8-1.3V37.6c0-0.7-0.3-1.1-0.8-1.3c-0.5-0.2-1.1-0.3-1.8-0.4v-1.1H460
		c0.4,0,0.7-0.1,1.1-0.4c0.4-0.2,0.6-0.8,0.6-1.7h1.1v12.4h-1.1c0-0.9-0.2-1.5-0.6-1.8c-0.4-0.3-0.7-0.4-1.1-0.4h-26.9v7.5h17.3
		c0.4,0,0.7-0.1,1.1-0.4c0.4-0.3,0.6-0.8,0.6-1.7h1.1v12h-1.1c0-0.9-0.2-1.4-0.6-1.7c-0.4-0.3-0.7-0.4-1.1-0.4h-17.3v9.1H459.3z"
		/>
	<path class="st1" d="M477.4,37.6c0-0.7-0.2-1.1-0.6-1.3c-0.4-0.2-0.9-0.3-1.4-0.4v-1.1H505c4.6,0,8.3,1.1,11,3.2
		c2.7,2.2,4.1,5.4,4.1,9.6c0,3.3-1,6-2.9,7.9c-1.9,1.9-4.4,3.5-7.3,4.6l8.2,12.4c0.3,0.5,0.8,0.9,1.3,1.3c0.6,0.4,1.2,0.6,1.9,0.6
		v1.1h-18.6v-1.1c0.4,0,0.9-0.1,1.4-0.2c0.5-0.2,0.8-0.5,0.8-1c0-0.3-0.3-1.1-1-2.3c-0.6-1.2-1.4-2.6-2.2-4
		c-0.8-1.4-1.6-2.8-2.4-4.1c-0.8-1.3-1.2-2.1-1.4-2.5h-8.9v12.4c0,0.7,0.2,1.1,0.7,1.3c0.5,0.2,1,0.3,1.7,0.4v1.1h-15.9v-1.1
		c0.4-0.1,0.8-0.2,1.2-0.4c0.4-0.2,0.6-0.6,0.6-1.3V37.6z M502.2,52.5c2,0,3.5-0.4,4.7-1.2c1.1-0.8,1.7-2.1,1.7-3.7
		c0-1.4-0.5-2.6-1.4-3.6c-1-1-2.8-1.4-5.6-1.4h-12.5v10H502.2z"/>
	<path class="st1" d="M576.9,44.1c0.1-0.2,0.1-0.4,0.1-0.6c0-0.2,0-0.5,0-0.8c0-0.5-0.4-1-1.2-1.5c-0.8-0.5-1.9-0.9-3.3-1.3
		c-1.4-0.4-3-0.7-4.8-1c-1.8-0.3-3.7-0.4-5.6-0.4c-1.8,0-3.8,0.2-5.8,0.6c-2,0.4-3.9,1.1-5.6,2.1c-1.7,1-3.1,2.3-4.2,3.9
		c-1.1,1.6-1.6,3.6-1.6,6c0,2.3,0.5,4.3,1.6,6c1.1,1.6,2.5,2.9,4.2,3.9c1.7,1,3.6,1.7,5.6,2.1c2,0.4,4,0.6,5.8,0.6
		c0.8,0,2.1-0.1,3.8-0.4c1.7-0.3,3.4-0.7,5.2-1.2c1.7-0.5,3.2-1,4.6-1.7c1.3-0.6,2-1.3,2-1.9c0-0.3-0.1-0.6-0.2-0.7
		c-0.1-0.2-0.2-0.4-0.4-0.6l1-0.6l9.5,14.5l-1.1,0.6c-0.1-0.3-0.3-0.5-0.5-0.6c-0.2-0.1-0.5-0.1-0.8-0.1c-0.4,0-1.3,0.3-2.6,0.8
		c-1.3,0.5-3,1.1-5,1.7c-2.1,0.6-4.5,1.1-7.2,1.6c-2.8,0.5-5.9,0.7-9.3,0.7c-3.7,0-7.4-0.5-11-1.4c-3.6-1-6.9-2.5-9.8-4.5
		c-2.9-2.1-5.2-4.6-7-7.8c-1.8-3.1-2.7-6.7-2.7-10.8c0-4.1,0.9-7.7,2.7-10.8c1.8-3.1,4.1-5.7,7-7.8c2.9-2.1,6.2-3.6,9.8-4.7
		c3.6-1,7.3-1.6,11-1.6c3.7,0,6.9,0.2,9.6,0.6c2.7,0.4,4.9,0.8,6.8,1.3c1.8,0.5,3.2,0.9,4.2,1.2c1,0.3,1.7,0.5,2.2,0.5
		c0.6,0,1-0.2,1.4-0.7l1,0.3l-8.3,15.2L576.9,44.1z"/>
	<path class="st1" d="M620,34.2c2.9,0,5.8,0.4,8.7,1.2c2.9,0.8,5.6,2,7.9,3.7c2.4,1.7,4.3,3.9,5.8,6.5c1.5,2.6,2.2,5.8,2.2,9.4
		c0,3.7-0.7,6.8-2.2,9.5c-1.5,2.6-3.4,4.8-5.8,6.4c-2.4,1.7-5,2.9-7.9,3.6c-2.9,0.7-5.8,1.1-8.7,1.1c-2.9,0-5.8-0.4-8.7-1.1
		c-2.9-0.7-5.6-1.9-7.9-3.6c-2.4-1.7-4.3-3.8-5.8-6.4c-1.5-2.6-2.2-5.8-2.2-9.5c0-3.6,0.7-6.8,2.2-9.4c1.5-2.6,3.4-4.8,5.8-6.5
		c2.4-1.7,5-2.9,7.9-3.7C614.2,34.6,617.1,34.2,620,34.2z M620,44c-1.7,0-3.4,0.3-4.9,0.8c-1.5,0.5-2.9,1.3-4.1,2.2
		c-1.2,1-2.1,2.1-2.7,3.5c-0.6,1.4-1,2.9-1,4.6c0,1.7,0.3,3.3,1,4.6c0.6,1.4,1.6,2.5,2.7,3.5c1.2,1,2.5,1.7,4.1,2.2
		c1.5,0.5,3.2,0.8,4.9,0.8c1.8,0,3.4-0.3,4.9-0.8c1.5-0.5,2.8-1.3,4-2.2c1.2-1,2.1-2.1,2.7-3.5c0.6-1.4,1-2.9,1-4.6
		c0-1.7-0.3-3.3-1-4.6c-0.6-1.4-1.6-2.5-2.7-3.5c-1.2-1-2.5-1.7-4-2.2C623.4,44.3,621.8,44,620,44z"/>
	<path class="st1" d="M656.8,37.6c0-0.7-0.2-1.1-0.6-1.3c-0.4-0.2-0.9-0.3-1.4-0.4v-1.1h29.6c4.6,0,8.3,1.1,11,3.2
		c2.7,2.2,4.1,5.4,4.1,9.6c0,3.3-1,6-2.9,7.9c-1.9,1.9-4.4,3.5-7.3,4.6l8.2,12.4c0.3,0.5,0.8,0.9,1.3,1.3c0.6,0.4,1.2,0.6,1.9,0.6
		v1.1h-18.6v-1.1c0.4,0,0.9-0.1,1.4-0.2c0.5-0.2,0.8-0.5,0.8-1c0-0.3-0.3-1.1-1-2.3c-0.6-1.2-1.4-2.6-2.2-4
		c-0.8-1.4-1.6-2.8-2.4-4.1c-0.8-1.3-1.2-2.1-1.4-2.5h-8.9v12.4c0,0.7,0.2,1.1,0.7,1.3c0.5,0.2,1,0.3,1.7,0.4v1.1H655v-1.1
		c0.4-0.1,0.8-0.2,1.2-0.4c0.4-0.2,0.6-0.6,0.6-1.3V37.6z M681.6,52.5c2,0,3.5-0.4,4.7-1.2c1.1-0.8,1.7-2.1,1.7-3.7
		c0-1.4-0.5-2.6-1.4-3.6c-1-1-2.8-1.4-5.6-1.4h-12.5v10H681.6z"/>
	<path class="st1" d="M751.4,67.3c1.2,0,2-0.8,2.4-2.3h1.1v12.1H754c-0.3-0.9-0.6-1.4-1-1.5c-0.3-0.1-0.9-0.2-1.6-0.2h-41.2v-1.1
		c0.7-0.1,1.3-0.2,1.8-0.4c0.5-0.2,0.8-0.6,0.8-1.3V37.6c0-0.7-0.3-1.1-0.8-1.3c-0.5-0.2-1.1-0.3-1.8-0.4v-1.1h41.9
		c0.4,0,0.7-0.1,1.1-0.4c0.4-0.2,0.6-0.8,0.6-1.7h1.1v12.4h-1.1c0-0.9-0.2-1.5-0.6-1.8c-0.4-0.3-0.7-0.4-1.1-0.4h-26.9v7.5h17.3
		c0.4,0,0.7-0.1,1.1-0.4c0.4-0.3,0.6-0.8,0.6-1.7h1.1v12h-1.1c0-0.9-0.2-1.4-0.6-1.7c-0.4-0.3-0.7-0.4-1.1-0.4h-17.3v9.1H751.4z"
		/>
	
	<path class="st1" d="M46,0c25.4,0,46,20.6,46,46c0,25.4-20.6,46-46,46S0,71.3,0,46C0,20.6,20.6,0,46,0z M88.4,46
		c0-23.4-19-42.4-42.4-42.4C22.6,3.6,3.6,22.6,3.6,46c0,23.4,19,42.4,42.4,42.4C69.4,88.4,88.4,69.4,88.4,46z"/>
	<path class="st1" d="M75.9,24.9l-5.4,17.6H56.9l-2.1,1.6l-7.4,30.5H26.9l3.8-11.4l0.3-1.1l-8.4,6.4l11.6-16.9l2.7-9.1H18.4
		l5.4-17.6H47h1.8l9.5-6.1l-3.9,6.1H75.9z M68.6,39.9L72.4,28H55.3l-4.7,7.7l10.8,4.1L68.6,39.9z M31.2,59.5L55.5,41l-10.8-4.5
		l0.7-1.1l6.4-10.1l0.1-0.1L33.4,37.1l9.7,5.1L31.2,59.5z M44.8,71.2l5.5-20.8L34.1,63l-2.6,8.2H44.8z M26.6,37.4l14.6-9.3
		l-15.7,0l-3.6,11.8l10.4,0.1L26.6,37.4z"/>
</svg>
